SORRY, NO ENGLISH THIS TIME. This serie is in English, but the menu isn't.

~~~~~~~~~~~~~~~~~~~~~~~~~~~~~~~~~~~~~~~~~~~~~~~~~~~~~~~~~
VERHAALLIJN:
¯¯¯¯¯¯¯¯¯¯¯¯
In de serie raakt de Amerikaanse astronaut John Crichton per abuis in een wormgat  verzeild tijdens een experimentele ruimtevlucht. Eenmaal uit het wormgat blijkt hij zich in een compleet nieuw heelal te bevinden. Voordat hij zich hierover ook maar kan verbazen belandt hij midden in een ruimtegevecht, waarin hij per ongeluk een schip ramt, dat vervolgens explodeert. Hij wordt aan boord genomen van een reusachtig levend ruimteschip dat bemand is door een drietal buitenaardse wezens, gevangenen, zo blijkt, die net bezig zijn te ontsnappen uit handen van de Peacekeepers, een mensachtig ras van brute militairen.

~~~~~~~~~~~~~~~~~~~~~~~~~~~~~~~~~~~~~~~~~~~~~~~~~~~~~~~~~
- Titel: Farscape Seizoen 1 DVD 6
- Afleveringen: The Flax - Jeremiah Crichton - Durka Returns - Human Reaction
- Grootte: 3,70 GB
- Categorie : Beeld
- Formaat : DVD5 
- Bron : Retail
- Genre : Science Fiction
- Beeld : 4:3
- Audio : 5.1DD Engels
- Menu : Ja Custom (met dank aan kessy en machoclown)
- Ondertitels : Custom Nederlands (met dank aan DaClownz)
- Genre : Science-Fiction | Avontuur 

Met dank aan Pioen voor het verkrijgen van deze serie & Angelspots voor het spotten!

IMDb: http://www.imdb.com/title/tt0187636/ (8.7 uit 10 !!!)
Officiële website: http://www.farscape.com

~~~~~~~~~~~~~~~~~~~~~~~~~~~~~~~~~~~~~~~~~~~~~~~~~~~~~~~~~

VIDEO & AUDIO INFORMATIE
¯¯¯¯¯¯¯¯¯¯¯¯¯¯¯¯¯¯¯¯¯¯¯¯¯¯¯¯¯¯
Format                           : MPEG-PS
File size                        : 1 024 MiB
Duration                         : 26mn 43s
Overall bit rate                 : 5 358 Kbps

Video
ID                               : 224 (0xE0)
Format                           : MPEG Video
Format version                   : Version 2
Format profile                   : Main@Main
Format settings, BVOP            : Yes
Format settings, Matrix          : Default
Format settings, GOP             : M=3, N=12
Duration                         : 26mn 43s
Bit rate mode                    : Variable
Bit rate                         : 4 803 Kbps
Nominal bit rate                 : 8 400 Kbps
Width                            : 720 pixels
Height                           : 576 pixels
Display aspect ratio             : 4:3
Frame rate                       : 25.000 fps
Standard                         : PAL
Color space                      : YUV
Chroma subsampling               : 4:2:0
Bit depth                        : 8 bits
Scan type                        : Interlaced
Scan order                       : Top Field First
Bits/(Pixel*Frame)               : 0.463
Stream size                      : 918 MiB (90%)

Audio
ID                               : 128 (0x80)
Format                           : AC-3
Format/Info                      : Audio Coding 3
Mode extension                   : CM (complete main)
Duration                         : 26mn 43s
Bit rate mode                    : Constant
Bit rate                         : 448 Kbps
Channel(s)                       : 6 channels
Channel positions                : Front: L C R, Side: L R, LFE
Sampling rate                    : 48.0 KHz
Bit depth                        : 16 bits
Video delay                      : -192ms
Stream size                      : 85.6 MiB (8%)

Text
ID                               : 32 (0x20)
Format                           : RLE
Format/Info                      : Run-length encoding


*****************************************

Brought to you by
2Lions Team

Meer zien??
Kom dan eens kijken op ons forum
 
http://www.2lions-site.nl

2Lions the site to be for all your Dutch MOVIES and more

******************************************